<?xml version="1.0" encoding="utf-8"?>
<svg width="28" height="28" viewBox="0 0 28 28" fill="none" xmlns="http://www.w3.org/2000/svg">
  <rect x="6.091" y="7.729" width="15.971" height="12.644" style="fill: rgb(255, 255, 255);"/>
  <path d="M 26.009 11.011 C 25.546 10.529 25.068 10.03 24.888 9.592 C 24.72 9.191 24.71 8.525 24.7 7.882 C 24.683 6.685 24.663 5.327 23.719 4.384 C 22.774 3.44 21.418 3.42 20.22 3.402 C 19.576 3.392 18.911 3.382 18.51 3.216 C 18.072 3.035 17.574 2.556 17.09 2.093 C 16.242 1.28 15.281 0.358 14 0.358 C 12.719 0.358 11.758 1.28 10.91 2.093 C 10.426 2.556 9.928 3.035 9.49 3.216 C 9.089 3.382 8.424 3.392 7.78 3.402 C 6.582 3.42 5.226 3.44 4.281 4.384 C 3.337 5.327 3.316 6.685 3.3 7.882 C 3.29 8.525 3.28 9.191 3.113 9.592 C 2.932 10.03 2.454 10.529 1.991 11.011 C 1.177 11.86 0.256 12.821 0.256 14.102 C 0.256 15.384 1.177 16.345 1.991 17.193 C 2.454 17.675 2.932 18.174 3.113 18.612 C 3.28 19.014 3.29 19.679 3.3 20.322 C 3.316 21.52 3.337 22.877 4.281 23.821 C 5.226 24.765 6.582 24.786 7.78 24.803 C 8.424 24.812 9.089 24.823 9.49 24.989 C 9.928 25.17 10.426 25.649 10.91 26.111 C 11.758 26.925 12.719 27.846 14 27.846 C 15.281 27.846 16.242 26.925 17.09 26.111 C 17.574 25.649 18.072 25.17 18.51 24.989 C 18.911 24.823 19.576 24.812 20.22 24.803 C 21.418 24.786 22.774 24.765 23.719 23.821 C 24.663 22.877 24.683 21.52 24.7 20.322 C 24.71 19.679 24.72 19.014 24.888 18.612 C 25.068 18.174 25.546 17.675 26.009 17.193 C 26.823 16.345 27.744 15.384 27.744 14.102 C 27.744 12.821 26.823 11.86 26.009 11.011 Z M 20.076 11.868 L 12.877 18.739 C 12.695 18.913 12.452 19.011 12.201 19.011 C 11.948 19.011 11.704 18.913 11.522 18.739 L 7.924 15.304 C 7.829 15.214 7.754 15.108 7.703 14.99 C 7.65 14.872 7.621 14.745 7.618 14.616 C 7.615 14.487 7.638 14.359 7.685 14.238 C 7.731 14.118 7.802 14.009 7.89 13.915 C 7.979 13.822 8.086 13.747 8.204 13.694 C 8.322 13.643 8.449 13.615 8.578 13.612 C 8.706 13.609 8.835 13.631 8.955 13.678 C 9.076 13.724 9.185 13.794 9.278 13.883 L 12.201 16.672 L 18.722 10.447 C 18.815 10.358 18.925 10.289 19.045 10.242 C 19.165 10.195 19.294 10.172 19.422 10.175 C 19.551 10.178 19.678 10.207 19.796 10.259 C 19.914 10.311 20.021 10.386 20.11 10.479 C 20.198 10.572 20.269 10.682 20.315 10.803 C 20.362 10.923 20.385 11.051 20.382 11.18 C 20.379 11.309 20.35 11.436 20.297 11.553 C 20.246 11.672 20.172 11.778 20.076 11.868 Z" style="fill: rgb(29, 128, 185); stroke: rgb(0, 0, 0); stroke-width: 0.6px; stroke-opacity: 0.21;"/>
</svg>